<mxfile host="app.diagrams.net" modified="2023-10-08T01:34:20.367Z" agent="Mozilla/5.0 (Macintosh; Intel Mac OS X 10_15_7) AppleWebKit/537.36 (KHTML, like Gecko) Chrome/117.0.0.0 Safari/537.36" etag="VX9iVW1r0CFbWU9OTZVO" version="22.0.4" type="device">
  <diagram name="Page-1" id="PtqWHGMc8UhwBbCpFThR">
    <mxGraphModel dx="1434" dy="765" grid="1" gridSize="10" guides="1" tooltips="1" connect="1" arrows="1" fold="1" page="1" pageScale="1" pageWidth="850" pageHeight="1100" math="0" shadow="0">
      <root>
        <mxCell id="0" />
        <mxCell id="1" parent="0" />
        <mxCell id="4X6Dm4h0ife76fW1SRhf-18" value="" style="rounded=1;whiteSpace=wrap;html=1;fillColor=#fff2cc;strokeColor=#d6b656;" vertex="1" parent="1">
          <mxGeometry x="80" y="210" width="420" height="150" as="geometry" />
        </mxCell>
        <mxCell id="4X6Dm4h0ife76fW1SRhf-21" style="edgeStyle=orthogonalEdgeStyle;curved=1;rounded=0;orthogonalLoop=1;jettySize=auto;html=1;exitX=0.5;exitY=1;exitDx=0;exitDy=0;fillColor=#e1d5e7;strokeColor=#9673a6;" edge="1" parent="1" source="4X6Dm4h0ife76fW1SRhf-2" target="4X6Dm4h0ife76fW1SRhf-16">
          <mxGeometry relative="1" as="geometry" />
        </mxCell>
        <mxCell id="4X6Dm4h0ife76fW1SRhf-22" style="edgeStyle=orthogonalEdgeStyle;curved=1;rounded=0;orthogonalLoop=1;jettySize=auto;html=1;exitX=0.5;exitY=1;exitDx=0;exitDy=0;entryX=0.5;entryY=0;entryDx=0;entryDy=0;fillColor=#d5e8d4;strokeColor=#82b366;" edge="1" parent="1" source="4X6Dm4h0ife76fW1SRhf-2" target="4X6Dm4h0ife76fW1SRhf-17">
          <mxGeometry relative="1" as="geometry" />
        </mxCell>
        <mxCell id="4X6Dm4h0ife76fW1SRhf-2" value="Client" style="rounded=1;whiteSpace=wrap;html=1;fillColor=#dae8fc;strokeColor=#6c8ebf;" vertex="1" parent="1">
          <mxGeometry x="210" y="40" width="120" height="60" as="geometry" />
        </mxCell>
        <mxCell id="4X6Dm4h0ife76fW1SRhf-3" value="" style="endArrow=none;dashed=1;html=1;dashPattern=1 3;strokeWidth=2;rounded=0;" edge="1" parent="1">
          <mxGeometry width="50" height="50" relative="1" as="geometry">
            <mxPoint x="40" y="160" as="sourcePoint" />
            <mxPoint x="660" y="160" as="targetPoint" />
          </mxGeometry>
        </mxCell>
        <mxCell id="4X6Dm4h0ife76fW1SRhf-4" value="Internet" style="edgeLabel;html=1;align=center;verticalAlign=middle;resizable=0;points=[];fontSize=21;fontStyle=1" vertex="1" connectable="0" parent="4X6Dm4h0ife76fW1SRhf-3">
          <mxGeometry x="0.9226" y="-2" relative="1" as="geometry">
            <mxPoint x="-36" y="-22" as="offset" />
          </mxGeometry>
        </mxCell>
        <mxCell id="4X6Dm4h0ife76fW1SRhf-23" style="edgeStyle=orthogonalEdgeStyle;curved=1;rounded=0;orthogonalLoop=1;jettySize=auto;html=1;exitX=0.5;exitY=1;exitDx=0;exitDy=0;fillColor=#e1d5e7;strokeColor=#9673a6;" edge="1" parent="1" source="4X6Dm4h0ife76fW1SRhf-6">
          <mxGeometry relative="1" as="geometry">
            <mxPoint x="240" y="270" as="targetPoint" />
          </mxGeometry>
        </mxCell>
        <mxCell id="4X6Dm4h0ife76fW1SRhf-24" style="edgeStyle=orthogonalEdgeStyle;curved=1;rounded=0;orthogonalLoop=1;jettySize=auto;html=1;exitX=0.5;exitY=1;exitDx=0;exitDy=0;entryX=0.5;entryY=0;entryDx=0;entryDy=0;fillColor=#d5e8d4;strokeColor=#82b366;" edge="1" parent="1" source="4X6Dm4h0ife76fW1SRhf-6" target="4X6Dm4h0ife76fW1SRhf-17">
          <mxGeometry relative="1" as="geometry" />
        </mxCell>
        <mxCell id="4X6Dm4h0ife76fW1SRhf-6" value="Client" style="rounded=1;whiteSpace=wrap;html=1;fillColor=#dae8fc;strokeColor=#6c8ebf;" vertex="1" parent="1">
          <mxGeometry x="380" y="40" width="120" height="60" as="geometry" />
        </mxCell>
        <mxCell id="4X6Dm4h0ife76fW1SRhf-19" style="edgeStyle=orthogonalEdgeStyle;curved=1;rounded=0;orthogonalLoop=1;jettySize=auto;html=1;exitX=0.5;exitY=1;exitDx=0;exitDy=0;fillColor=#e1d5e7;strokeColor=#9673a6;" edge="1" parent="1" source="4X6Dm4h0ife76fW1SRhf-7">
          <mxGeometry relative="1" as="geometry">
            <mxPoint x="240" y="270" as="targetPoint" />
          </mxGeometry>
        </mxCell>
        <mxCell id="4X6Dm4h0ife76fW1SRhf-20" style="edgeStyle=orthogonalEdgeStyle;curved=1;rounded=0;orthogonalLoop=1;jettySize=auto;html=1;exitX=0.5;exitY=1;exitDx=0;exitDy=0;fillColor=#d5e8d4;strokeColor=#82b366;" edge="1" parent="1" source="4X6Dm4h0ife76fW1SRhf-7" target="4X6Dm4h0ife76fW1SRhf-17">
          <mxGeometry relative="1" as="geometry" />
        </mxCell>
        <mxCell id="4X6Dm4h0ife76fW1SRhf-7" value="Client" style="rounded=1;whiteSpace=wrap;html=1;fillColor=#dae8fc;strokeColor=#6c8ebf;" vertex="1" parent="1">
          <mxGeometry x="50" y="40" width="120" height="60" as="geometry" />
        </mxCell>
        <mxCell id="4X6Dm4h0ife76fW1SRhf-16" value="Http Server" style="rounded=1;whiteSpace=wrap;html=1;fillColor=#e1d5e7;strokeColor=#9673a6;" vertex="1" parent="1">
          <mxGeometry x="180" y="270" width="120" height="60" as="geometry" />
        </mxCell>
        <mxCell id="4X6Dm4h0ife76fW1SRhf-17" value="Web Server" style="rounded=1;whiteSpace=wrap;html=1;fillColor=#d5e8d4;strokeColor=#82b366;" vertex="1" parent="1">
          <mxGeometry x="330" y="270" width="120" height="60" as="geometry" />
        </mxCell>
        <mxCell id="4X6Dm4h0ife76fW1SRhf-25" value="Backend" style="text;html=1;strokeColor=none;fillColor=none;align=center;verticalAlign=middle;whiteSpace=wrap;rounded=0;" vertex="1" parent="1">
          <mxGeometry x="90" y="230" width="60" height="30" as="geometry" />
        </mxCell>
        <mxCell id="4X6Dm4h0ife76fW1SRhf-26" value="Query Game&amp;nbsp;" style="rounded=0;whiteSpace=wrap;html=1;" vertex="1" parent="1">
          <mxGeometry x="190" y="410" width="90" height="40" as="geometry" />
        </mxCell>
        <mxCell id="4X6Dm4h0ife76fW1SRhf-27" value="Bet" style="rounded=0;whiteSpace=wrap;html=1;" vertex="1" parent="1">
          <mxGeometry x="190" y="480" width="90" height="40" as="geometry" />
        </mxCell>
        <mxCell id="4X6Dm4h0ife76fW1SRhf-28" value="Hit" style="rounded=0;whiteSpace=wrap;html=1;" vertex="1" parent="1">
          <mxGeometry x="190" y="550" width="90" height="40" as="geometry" />
        </mxCell>
        <mxCell id="4X6Dm4h0ife76fW1SRhf-30" style="edgeStyle=orthogonalEdgeStyle;curved=1;rounded=0;orthogonalLoop=1;jettySize=auto;html=1;exitX=1;exitY=0.5;exitDx=0;exitDy=0;entryX=0;entryY=0.5;entryDx=0;entryDy=0;" edge="1" parent="1" source="4X6Dm4h0ife76fW1SRhf-29" target="4X6Dm4h0ife76fW1SRhf-26">
          <mxGeometry relative="1" as="geometry" />
        </mxCell>
        <mxCell id="4X6Dm4h0ife76fW1SRhf-31" style="edgeStyle=orthogonalEdgeStyle;curved=1;rounded=0;orthogonalLoop=1;jettySize=auto;html=1;exitX=1;exitY=0.5;exitDx=0;exitDy=0;entryX=0;entryY=0.5;entryDx=0;entryDy=0;" edge="1" parent="1" source="4X6Dm4h0ife76fW1SRhf-29" target="4X6Dm4h0ife76fW1SRhf-27">
          <mxGeometry relative="1" as="geometry" />
        </mxCell>
        <mxCell id="4X6Dm4h0ife76fW1SRhf-32" style="edgeStyle=orthogonalEdgeStyle;curved=1;rounded=0;orthogonalLoop=1;jettySize=auto;html=1;exitX=1;exitY=0.5;exitDx=0;exitDy=0;entryX=0;entryY=0.5;entryDx=0;entryDy=0;" edge="1" parent="1" source="4X6Dm4h0ife76fW1SRhf-29" target="4X6Dm4h0ife76fW1SRhf-28">
          <mxGeometry relative="1" as="geometry" />
        </mxCell>
        <mxCell id="4X6Dm4h0ife76fW1SRhf-34" style="edgeStyle=orthogonalEdgeStyle;curved=1;rounded=0;orthogonalLoop=1;jettySize=auto;html=1;exitX=1;exitY=0.5;exitDx=0;exitDy=0;entryX=0;entryY=0.5;entryDx=0;entryDy=0;" edge="1" parent="1" source="4X6Dm4h0ife76fW1SRhf-29" target="4X6Dm4h0ife76fW1SRhf-33">
          <mxGeometry relative="1" as="geometry" />
        </mxCell>
        <mxCell id="4X6Dm4h0ife76fW1SRhf-38" style="edgeStyle=orthogonalEdgeStyle;curved=1;rounded=0;orthogonalLoop=1;jettySize=auto;html=1;exitX=1;exitY=0.5;exitDx=0;exitDy=0;entryX=0;entryY=0.5;entryDx=0;entryDy=0;" edge="1" parent="1" source="4X6Dm4h0ife76fW1SRhf-29" target="4X6Dm4h0ife76fW1SRhf-35">
          <mxGeometry relative="1" as="geometry" />
        </mxCell>
        <mxCell id="4X6Dm4h0ife76fW1SRhf-39" style="edgeStyle=orthogonalEdgeStyle;curved=1;rounded=0;orthogonalLoop=1;jettySize=auto;html=1;exitX=1;exitY=0.5;exitDx=0;exitDy=0;entryX=0;entryY=0.5;entryDx=0;entryDy=0;" edge="1" parent="1" source="4X6Dm4h0ife76fW1SRhf-29" target="4X6Dm4h0ife76fW1SRhf-36">
          <mxGeometry relative="1" as="geometry" />
        </mxCell>
        <mxCell id="4X6Dm4h0ife76fW1SRhf-40" style="edgeStyle=orthogonalEdgeStyle;curved=1;rounded=0;orthogonalLoop=1;jettySize=auto;html=1;exitX=1;exitY=0.5;exitDx=0;exitDy=0;entryX=0;entryY=0.5;entryDx=0;entryDy=0;" edge="1" parent="1" source="4X6Dm4h0ife76fW1SRhf-29" target="4X6Dm4h0ife76fW1SRhf-37">
          <mxGeometry relative="1" as="geometry" />
        </mxCell>
        <mxCell id="4X6Dm4h0ife76fW1SRhf-29" value="Http Server" style="rounded=1;whiteSpace=wrap;html=1;" vertex="1" parent="1">
          <mxGeometry x="20" y="580" width="120" height="60" as="geometry" />
        </mxCell>
        <mxCell id="4X6Dm4h0ife76fW1SRhf-33" value="Stand" style="rounded=0;whiteSpace=wrap;html=1;" vertex="1" parent="1">
          <mxGeometry x="190" y="620" width="90" height="40" as="geometry" />
        </mxCell>
        <mxCell id="4X6Dm4h0ife76fW1SRhf-35" value="Split" style="rounded=0;whiteSpace=wrap;html=1;fillColor=#f8cecc;strokeColor=#b85450;" vertex="1" parent="1">
          <mxGeometry x="190" y="690" width="90" height="40" as="geometry" />
        </mxCell>
        <mxCell id="4X6Dm4h0ife76fW1SRhf-36" value="Double Down" style="rounded=0;whiteSpace=wrap;html=1;fillColor=#f8cecc;strokeColor=#b85450;" vertex="1" parent="1">
          <mxGeometry x="190" y="750" width="90" height="40" as="geometry" />
        </mxCell>
        <mxCell id="4X6Dm4h0ife76fW1SRhf-37" value="Buy Insurence" style="rounded=0;whiteSpace=wrap;html=1;fillColor=#f8cecc;strokeColor=#b85450;" vertex="1" parent="1">
          <mxGeometry x="190" y="810" width="90" height="40" as="geometry" />
        </mxCell>
        <mxCell id="4X6Dm4h0ife76fW1SRhf-49" style="edgeStyle=orthogonalEdgeStyle;curved=1;rounded=0;orthogonalLoop=1;jettySize=auto;html=1;exitX=1;exitY=0.5;exitDx=0;exitDy=0;entryX=0;entryY=0.5;entryDx=0;entryDy=0;" edge="1" parent="1" source="4X6Dm4h0ife76fW1SRhf-41" target="4X6Dm4h0ife76fW1SRhf-42">
          <mxGeometry relative="1" as="geometry" />
        </mxCell>
        <mxCell id="4X6Dm4h0ife76fW1SRhf-50" style="edgeStyle=orthogonalEdgeStyle;curved=1;rounded=0;orthogonalLoop=1;jettySize=auto;html=1;exitX=1;exitY=0.5;exitDx=0;exitDy=0;entryX=0;entryY=0.5;entryDx=0;entryDy=0;" edge="1" parent="1" source="4X6Dm4h0ife76fW1SRhf-41" target="4X6Dm4h0ife76fW1SRhf-43">
          <mxGeometry relative="1" as="geometry" />
        </mxCell>
        <mxCell id="4X6Dm4h0ife76fW1SRhf-51" style="edgeStyle=orthogonalEdgeStyle;curved=1;rounded=0;orthogonalLoop=1;jettySize=auto;html=1;exitX=1;exitY=0.5;exitDx=0;exitDy=0;entryX=0;entryY=0.5;entryDx=0;entryDy=0;" edge="1" parent="1" source="4X6Dm4h0ife76fW1SRhf-41" target="4X6Dm4h0ife76fW1SRhf-44">
          <mxGeometry relative="1" as="geometry" />
        </mxCell>
        <mxCell id="4X6Dm4h0ife76fW1SRhf-52" style="edgeStyle=orthogonalEdgeStyle;curved=1;rounded=0;orthogonalLoop=1;jettySize=auto;html=1;exitX=1;exitY=0.5;exitDx=0;exitDy=0;entryX=0;entryY=0.5;entryDx=0;entryDy=0;" edge="1" parent="1" source="4X6Dm4h0ife76fW1SRhf-41" target="4X6Dm4h0ife76fW1SRhf-46">
          <mxGeometry relative="1" as="geometry" />
        </mxCell>
        <mxCell id="4X6Dm4h0ife76fW1SRhf-53" style="edgeStyle=orthogonalEdgeStyle;curved=1;rounded=0;orthogonalLoop=1;jettySize=auto;html=1;exitX=1;exitY=0.5;exitDx=0;exitDy=0;entryX=0;entryY=0.5;entryDx=0;entryDy=0;" edge="1" parent="1" source="4X6Dm4h0ife76fW1SRhf-41" target="4X6Dm4h0ife76fW1SRhf-45">
          <mxGeometry relative="1" as="geometry" />
        </mxCell>
        <mxCell id="4X6Dm4h0ife76fW1SRhf-54" style="edgeStyle=orthogonalEdgeStyle;curved=1;rounded=0;orthogonalLoop=1;jettySize=auto;html=1;exitX=1;exitY=0.5;exitDx=0;exitDy=0;entryX=0;entryY=0.5;entryDx=0;entryDy=0;" edge="1" parent="1" source="4X6Dm4h0ife76fW1SRhf-41" target="4X6Dm4h0ife76fW1SRhf-47">
          <mxGeometry relative="1" as="geometry" />
        </mxCell>
        <mxCell id="4X6Dm4h0ife76fW1SRhf-55" style="edgeStyle=orthogonalEdgeStyle;curved=1;rounded=0;orthogonalLoop=1;jettySize=auto;html=1;exitX=1;exitY=0.5;exitDx=0;exitDy=0;entryX=0;entryY=0.5;entryDx=0;entryDy=0;" edge="1" parent="1" source="4X6Dm4h0ife76fW1SRhf-41" target="4X6Dm4h0ife76fW1SRhf-48">
          <mxGeometry relative="1" as="geometry" />
        </mxCell>
        <mxCell id="4X6Dm4h0ife76fW1SRhf-41" value="Web Server" style="rounded=1;whiteSpace=wrap;html=1;" vertex="1" parent="1">
          <mxGeometry x="380" y="580" width="120" height="60" as="geometry" />
        </mxCell>
        <mxCell id="4X6Dm4h0ife76fW1SRhf-42" value="Notify Round Started" style="rounded=0;whiteSpace=wrap;html=1;" vertex="1" parent="1">
          <mxGeometry x="590" y="380" width="90" height="40" as="geometry" />
        </mxCell>
        <mxCell id="4X6Dm4h0ife76fW1SRhf-43" value="Notify Bet Started" style="rounded=0;whiteSpace=wrap;html=1;" vertex="1" parent="1">
          <mxGeometry x="590" y="440" width="90" height="40" as="geometry" />
        </mxCell>
        <mxCell id="4X6Dm4h0ife76fW1SRhf-44" value="Notify Bet Ended" style="rounded=0;whiteSpace=wrap;html=1;" vertex="1" parent="1">
          <mxGeometry x="590" y="500" width="90" height="40" as="geometry" />
        </mxCell>
        <mxCell id="4X6Dm4h0ife76fW1SRhf-45" value="Notify Deal Ended" style="rounded=0;whiteSpace=wrap;html=1;" vertex="1" parent="1">
          <mxGeometry x="590" y="650" width="90" height="40" as="geometry" />
        </mxCell>
        <mxCell id="4X6Dm4h0ife76fW1SRhf-46" value="Notify Deal Started" style="rounded=0;whiteSpace=wrap;html=1;" vertex="1" parent="1">
          <mxGeometry x="590" y="570" width="90" height="40" as="geometry" />
        </mxCell>
        <mxCell id="4X6Dm4h0ife76fW1SRhf-47" value="Notify Result" style="rounded=0;whiteSpace=wrap;html=1;" vertex="1" parent="1">
          <mxGeometry x="590" y="720" width="90" height="40" as="geometry" />
        </mxCell>
        <mxCell id="4X6Dm4h0ife76fW1SRhf-48" value="Notify Deal Card" style="rounded=0;whiteSpace=wrap;html=1;" vertex="1" parent="1">
          <mxGeometry x="590" y="790" width="90" height="40" as="geometry" />
        </mxCell>
        <mxCell id="4X6Dm4h0ife76fW1SRhf-56" value="Flutter" style="text;html=1;strokeColor=none;fillColor=none;align=center;verticalAlign=middle;whiteSpace=wrap;rounded=0;fontSize=20;fontStyle=1" vertex="1" parent="1">
          <mxGeometry x="570" y="55" width="60" height="30" as="geometry" />
        </mxCell>
        <mxCell id="4X6Dm4h0ife76fW1SRhf-57" value="Python" style="text;html=1;strokeColor=none;fillColor=none;align=center;verticalAlign=middle;whiteSpace=wrap;rounded=0;fontSize=20;fontStyle=1" vertex="1" parent="1">
          <mxGeometry x="570" y="260" width="60" height="30" as="geometry" />
        </mxCell>
      </root>
    </mxGraphModel>
  </diagram>
</mxfile>
